<?xml version="1.0" encoding="UTF-8" standalone="no"?>
<!-- Created with Inkscape (http://www.inkscape.org/) -->

<svg
   xmlns:dc="http://purl.org/dc/elements/1.1/"
   xmlns:cc="http://creativecommons.org/ns#"
   xmlns:rdf="http://www.w3.org/1999/02/22-rdf-syntax-ns#"
   xmlns:svg="http://www.w3.org/2000/svg"
   xmlns="http://www.w3.org/2000/svg"
   xmlns:sodipodi="http://sodipodi.sourceforge.net/DTD/sodipodi-0.dtd"
   xmlns:inkscape="http://www.inkscape.org/namespaces/inkscape"
   width="320"
   height="240"
   id="svg2"
   version="1.1"
   inkscape:version="0.47 r22583"
   sodipodi:docname="New document 1">
  <defs
     id="defs4">
    <inkscape:perspective
       sodipodi:type="inkscape:persp3d"
       inkscape:vp_x="0 : 526.18109 : 1"
       inkscape:vp_y="0 : 1000 : 0"
       inkscape:vp_z="744.09448 : 526.18109 : 1"
       inkscape:persp3d-origin="372.04724 : 350.78739 : 1"
       id="perspective10" />
  </defs>
  <sodipodi:namedview
     id="base"
     pagecolor="#ffffff"
     bordercolor="#666666"
     borderopacity="1.0"
     inkscape:pageopacity="0.0"
     inkscape:pageshadow="2"
     inkscape:zoom="1.4"
     inkscape:cx="375"
     inkscape:cy="114.52523"
     inkscape:document-units="px"
     inkscape:current-layer="layer1"
     showgrid="false"
     inkscape:window-width="1366"
     inkscape:window-height="706"
     inkscape:window-x="-8"
     inkscape:window-y="-8"
     inkscape:window-maximized="1" />
  <metadata
     id="metadata7">
    <rdf:RDF>
      <cc:Work
         rdf:about="">
        <dc:format>image/svg+xml</dc:format>
        <dc:type
           rdf:resource="http://purl.org/dc/dcmitype/StillImage" />
        <dc:title></dc:title>
      </cc:Work>
    </rdf:RDF>
  </metadata>
  <g
     inkscape:label="Layer 1"
     inkscape:groupmode="layer"
     id="layer1"
     transform="translate(0,-812.36218)">
    <path
       style="fill:none;stroke:#000000;stroke-width:1px;stroke-linecap:butt;stroke-linejoin:miter;stroke-opacity:1"
       d="M 60,146.42857 C 29.285714,92.857143 85,70 85,70 c 0,0 159.28571,90.71429 142.85714,104.28571 -16.42857,13.57143 11.42857,19.28572 14.28572,18.57143 2.85714,-0.71428 -22.14286,85 50.71428,-29.28571 72.85715,-114.285716 -35,-60.71429 -66.42857,-69.285716 C 195,85.714286 73.571429,-28.571429 52.142857,30 c -21.428571,58.571428 -78.571428,115 -10,122.85714 C 110.71429,160.71429 60,147.85714 60,146.42857 z"
       id="path3331"
       transform="translate(0,812.36218)" />
    <path
       style="fill:#0000ff;fill-opacity:1;stroke:#ff6117;stroke-width:7.14285707;stroke-linecap:butt;stroke-linejoin:miter;stroke-miterlimit:10;stroke-opacity:1;stroke-dasharray:none"
       d="m 242.71661,220.8327 c -1.57406,-2.51287 -1.88338,-6.11586 -1.11613,-13.00079 0.39402,-3.53571 0.91258,-8.54886 1.15236,-11.14033 l 0.43597,-4.71175 -4.0251,-0.41543 c -4.6526,-0.48019 -11.05077,-3.19747 -13.65071,-5.79741 -2.48069,-2.48069 -2.28209,-4.89593 0.67141,-8.1651 3.99311,-4.41989 4.31634,-6.06194 2.02278,-10.27597 C 221.02224,154.1248 171.00832,119.2115 98.790835,76.984033 L 84.938821,68.884392 80.219407,71.457374 C 66.328373,79.03065 56.44676,89.913039 52.135743,102.38525 c -1.373337,3.9732 -1.631583,6.1647 -1.609813,13.66095 0.03036,10.45308 1.073805,15.01805 5.652283,24.72817 2.977525,6.3148 3.177849,6.55287 6.55374,7.78869 8.898181,3.25739 14.12742,5.66578 12.859087,5.9224 -3.646226,0.73775 -37.440672,-2.70944 -44.376755,-4.52663 -15.776824,-4.13338 -22.830634,-13.27404 -20.416851,-26.4571 2.046202,-11.17548 4.863887,-17.45571 27.380369,-61.026963 4.161874,-8.053571 8.905695,-17.857143 10.541824,-21.785714 7.688672,-18.461562 10.064469,-21.801521 17.482103,-24.576814 8.354165,-3.125694 19.663084,-1.754686 34.65541,4.201361 16.04186,6.372995 32.98377,16.068156 61.07143,34.948676 41.84732,28.129757 46.86605,31.426134 52.59353,34.544155 10.18465,5.544486 13.83631,6.468022 23.83504,6.028072 4.71429,-0.207429 16.92857,-1.558679 27.14286,-3.002764 15.88094,-2.245236 20.02016,-2.590008 28.57143,-2.379829 9.041,0.222214 10.38888,0.427671 14.05508,2.1424 2.919,1.36525 4.62,2.751829 6.07143,4.949143 1.87016,2.831227 2.01312,3.547867 1.9718,9.884777 -0.0375,5.75202 -0.40968,7.90513 -2.35396,13.61797 -4.53847,13.33527 -13.74735,30.10177 -29.84724,54.34248 -18.81107,28.3228 -31.76185,44.0513 -38.08727,46.25636 -1.91776,0.66853 -2.29821,0.57088 -3.16466,-0.81234 l 0,0 z"
       id="path3333"
       transform="translate(0,812.36218)" />
  </g>
</svg>
