<?xml version="1.0" encoding="UTF-8" standalone="no"?>
<!-- Created with Inkscape (http://www.inkscape.org/) -->

<svg
   xmlns:dc="http://purl.org/dc/elements/1.1/"
   xmlns:cc="http://creativecommons.org/ns#"
   xmlns:rdf="http://www.w3.org/1999/02/22-rdf-syntax-ns#"
   xmlns:svg="http://www.w3.org/2000/svg"
   xmlns="http://www.w3.org/2000/svg"
   xmlns:sodipodi="http://sodipodi.sourceforge.net/DTD/sodipodi-0.dtd"
   xmlns:inkscape="http://www.inkscape.org/namespaces/inkscape"
   width="192"
   height="64"
   id="svg9228"
   version="1.1"
   inkscape:version="0.47 r22583"
   sodipodi:docname="enemy_crawler.svg">
  <defs
     id="defs9230">
    <inkscape:perspective
       sodipodi:type="inkscape:persp3d"
       inkscape:vp_x="0 : 32 : 1"
       inkscape:vp_y="0 : 1000 : 0"
       inkscape:vp_z="192 : 32 : 1"
       inkscape:persp3d-origin="96 : 21.333333 : 1"
       id="perspective11543" />
  </defs>
  <sodipodi:namedview
     id="base"
     pagecolor="#ffffff"
     bordercolor="#666666"
     borderopacity="1.0"
     inkscape:pageopacity="0.0"
     inkscape:pageshadow="2"
     inkscape:zoom="5.5"
     inkscape:cx="101.54935"
     inkscape:cy="32"
     inkscape:current-layer="layer1"
     showgrid="true"
     inkscape:document-units="px"
     inkscape:grid-bbox="true"
     inkscape:window-width="1366"
     inkscape:window-height="706"
     inkscape:window-x="-8"
     inkscape:window-y="-8"
     inkscape:window-maximized="1"
     showguides="true"
     inkscape:guide-bbox="true">
    <sodipodi:guide
       orientation="1,0"
       position="64,48.181818"
       id="guide10708" />
    <sodipodi:guide
       orientation="1,0"
       position="128,39.272727"
       id="guide10710" />
  </sodipodi:namedview>
  <metadata
     id="metadata9233">
    <rdf:RDF>
      <cc:Work
         rdf:about="">
        <dc:format>image/svg+xml</dc:format>
        <dc:type
           rdf:resource="http://purl.org/dc/dcmitype/StillImage" />
        <dc:title />
      </cc:Work>
    </rdf:RDF>
  </metadata>
  <g
     id="layer1"
     inkscape:label="Layer 1"
     inkscape:groupmode="layer">
    <path
       style="fill:#000000;stroke:#cccccc;stroke-width:0.50000000000000000;stroke-linecap:butt;stroke-linejoin:miter;stroke-miterlimit:4;stroke-opacity:1;stroke-dasharray:none;fill-opacity:1"
       d="M 84,4.5454545 95.090909,4.1818181 86.181818,10.181819 84,4.5454545 z"
       id="path12080" />
    <path
       style="fill:#000000;stroke:#cccccc;stroke-width:0.50000000000000000;stroke-linecap:butt;stroke-linejoin:miter;stroke-miterlimit:4;stroke-opacity:1;stroke-dasharray:none;fill-opacity:1"
       d="M 83.545454,9.9090905 94.636364,9.5454541 85.727273,15.545455 83.545454,9.9090905 z"
       id="path12078" />
    <path
       style="fill:#000000;stroke:#cccccc;stroke-width:0.50000000000000000;stroke-linecap:butt;stroke-linejoin:miter;stroke-miterlimit:4;stroke-opacity:1;stroke-dasharray:none;fill-opacity:1"
       d="M 83.90909,14.272728 95,13.909091 86.090909,19.909092 83.90909,14.272728 z"
       id="path12076" />
    <path
       style="fill:#000000;stroke:#cccccc;stroke-width:0.50000000000000000;stroke-linecap:butt;stroke-linejoin:miter;stroke-miterlimit:4;stroke-opacity:1;stroke-dasharray:none;fill-opacity:1"
       d="M 108.0909,5.363636 96.999997,4.9999996 105.90908,11.000001 108.0909,5.363636 z"
       id="path12074" />
    <path
       style="fill:#000000;stroke:#cccccc;stroke-width:0.50000000000000000;stroke-linecap:butt;stroke-linejoin:miter;stroke-miterlimit:4;stroke-opacity:1;stroke-dasharray:none;fill-opacity:1"
       d="m 108.0909,10.454545 -11.090896,-0.363636 8.909076,6.000001 2.18182,-5.636365 z"
       id="path12072" />
    <path
       style="fill:#000000;stroke:#cccccc;stroke-width:0.50000000000000000;stroke-linecap:butt;stroke-linejoin:miter;stroke-miterlimit:4;stroke-opacity:1;stroke-dasharray:none;fill-opacity:1"
       d="m 108.27273,14.818181 -11.090912,-0.363637 8.909092,6.000001 2.18182,-5.636364 z"
       id="path10713" />
    <path
       transform="translate(64.181818,0)"
       style="fill:#1a1a1a;fill-opacity:1;stroke:#000000"
       d="M 42.135519,2.8371019 C 50.163527,5.6610523 56.286892,11.471653 59.697267,18.583267 63.107643,25.694882 47.894594,30.723608 44.435624,38.499156 40.702582,46.8908 40.909043,44.90809 36.50764,47.697267 32.890898,49.989204 33.632773,48.189501 30.591752,57.708351 28.632024,48.817867 21.845846,48.242673 19.575459,40.689458 17.43781,33.577843 0.01315145,29.710669 2.8371019,21.682661 5.8185184,13.207004 12.35026,6.4544614 20.722153,3.1930181 L 31.90909,31.90909 42.135519,2.8371019 z"
       id="path9238"
       sodipodi:nodetypes="cssscssccc" />
    <path
       style="fill:#000000;stroke:#cccccc;stroke-width:0.50000000000000000;stroke-linecap:butt;stroke-linejoin:miter;stroke-miterlimit:4;stroke-opacity:1;stroke-dasharray:none;fill-opacity:1"
       d="M 16.368258,3.3200864 27.311364,1.4791724 19.282953,8.6147539 16.368258,3.3200864 z"
       id="path12092" />
    <path
       style="fill:#000000;stroke:#cccccc;stroke-width:0.50000000000000000;stroke-linecap:butt;stroke-linejoin:miter;stroke-miterlimit:4;stroke-opacity:1;stroke-dasharray:none;fill-opacity:1"
       d="M 16.633782,8.6963951 27.576887,6.8554812 19.548467,13.991064 16.633782,8.6963951 z"
       id="path12090" />
    <path
       style="fill:#000000;stroke:#cccccc;stroke-width:0.50000000000000000;stroke-linecap:butt;stroke-linejoin:miter;stroke-miterlimit:4;stroke-opacity:1;stroke-dasharray:none;fill-opacity:1"
       d="m 17.576662,12.972438 10.943105,-1.840915 -8.02841,7.135582 -2.914695,-5.294667 z"
       id="path12088" />
    <path
       style="fill:#000000;stroke:#cccccc;stroke-width:0.50000000000000000;stroke-linecap:butt;stroke-linejoin:miter;stroke-miterlimit:4;stroke-opacity:1;stroke-dasharray:none;fill-opacity:1"
       d="M 47.349537,5.6305628 36.71634,2.4563841 43.805158,10.526105 47.349537,5.6305628 z"
       id="path12086" />
    <path
       style="fill:#000000;stroke:#cccccc;stroke-width:0.50000000000000000;stroke-linecap:butt;stroke-linejoin:miter;stroke-miterlimit:4;stroke-opacity:1;stroke-dasharray:none;fill-opacity:1"
       d="M 46.053956,10.553857 35.420768,7.3796816 42.509577,15.449399 46.053956,10.553857 z"
       id="path12084" />
    <path
       style="fill:#000000;stroke:#cccccc;stroke-width:0.50000000000000000;stroke-linecap:butt;stroke-linejoin:miter;stroke-miterlimit:4;stroke-opacity:1;stroke-dasharray:none;fill-opacity:1"
       d="m 45.119301,14.820097 -10.633207,-3.174181 7.088828,8.069722 3.544379,-4.895541 z"
       id="path10713-5" />
    <path
       style="fill:#1a1a1a;fill-opacity:1;stroke:#000000"
       d="m 47.154326,3.1098308 c 8.02801,2.82395 10.15137,7.3618242 13.56175,14.4734382 3.41037,7.111615 -11.25722,12.685795 -14.71619,20.461343 -3.73304,8.391644 -6.98113,9.136207 -11.38253,11.925384 -3.61674,2.291937 -4.87487,4.85587 -8.09771,10.37472 C 26.014466,49.999687 20.319196,47.969948 18.048806,40.416733 15.911156,33.305118 1.0319554,28.710671 3.8559054,20.682663 6.8373254,12.207006 9.369066,5.4544625 17.740956,2.1930195 L 30.746078,31.272728 47.154326,3.1098308 z"
       id="path9238-4"
       sodipodi:nodetypes="cssscssccc" />
    <g
       id="g11492"
       transform="matrix(0.99764734,0.06855498,-0.06855498,0.99764734,3.1754195,-11.295478)"
       style="fill:#000000;fill-opacity:1;stroke:#cccccc;stroke-opacity:1;stroke-width:0.50000000000000000;stroke-miterlimit:4;stroke-dasharray:none">
      <path
         style="fill:#000000;stroke:#cccccc;stroke-width:0.50000000000000000;stroke-linecap:butt;stroke-linejoin:miter;stroke-miterlimit:4;stroke-opacity:1;stroke-dasharray:none;fill-opacity:1"
         d="m 147.73067,6.0000014 11.09091,-0.363637 -8.90909,6.0000016 -2.18182,-5.6363646 z"
         id="path12068" />
      <path
         style="fill:#000000;stroke:#cccccc;stroke-width:0.50000000000000000;stroke-linecap:butt;stroke-linejoin:miter;stroke-miterlimit:4;stroke-opacity:1;stroke-dasharray:none;fill-opacity:1"
         d="m 147.27613,11.363638 11.09091,-0.363637 -8.90909,6.000001 -2.18182,-5.636364 z"
         id="path12066" />
      <path
         style="fill:#000000;stroke:#cccccc;stroke-width:0.50000000000000000;stroke-linecap:butt;stroke-linejoin:miter;stroke-miterlimit:4;stroke-opacity:1;stroke-dasharray:none;fill-opacity:1"
         d="m 147.63976,15.727275 11.09091,-0.363637 -8.90909,6.000001 -2.18182,-5.636364 z"
         id="path12064" />
      <path
         style="fill:#000000;stroke:#cccccc;stroke-width:0.50000000000000000;stroke-linecap:butt;stroke-linejoin:miter;stroke-miterlimit:4;stroke-opacity:1;stroke-dasharray:none;fill-opacity:1"
         d="m 166.39251,5.7763918 -10.78503,2.6121881 10.18808,3.4021791 0.59695,-6.0143672 z"
         id="path12062" />
      <path
         style="fill:#000000;stroke:#cccccc;stroke-width:0.50000000000000000;stroke-linecap:butt;stroke-linejoin:miter;stroke-miterlimit:4;stroke-opacity:1;stroke-dasharray:none;fill-opacity:1"
         d="m 167.75239,10.682313 -10.78501,2.612186 10.18806,3.402181 0.59695,-6.014367 z"
         id="path12060" />
      <path
         style="fill:#000000;stroke:#cccccc;stroke-width:0.50000000000000000;stroke-linecap:butt;stroke-linejoin:miter;stroke-miterlimit:4;stroke-opacity:1;stroke-dasharray:none;fill-opacity:1"
         d="m 169.09323,14.838817 -10.78503,2.61219 10.18808,3.402176 0.59695,-6.014366 z"
         id="path10713-50" />
    </g>
    <path
       style="fill:#1a1a1a;fill-opacity:1;stroke:#000000"
       d="m 166.04801,3.3825575 c 8.02801,2.82395 16.87864,9.3618245 20.28902,16.4734385 3.41038,7.111615 -5.35734,11.820597 -10.35255,15.552252 -5.86915,4.38454 -7.34476,8.045298 -6.29162,12.470839 0.99125,4.165478 -2.1476,7.946779 -5.37043,13.465632 C 163.81724,50.999687 152.12198,49.333584 149.85159,41.780369 147.71394,34.668754 128,33.347034 130.74959,23.137208 133.08601,14.461566 143.53548,7.1817347 151.90738,3.9202917 l 9.18693,29.6251633 4.9537,-30.1628975 z"
       id="path9238-7"
       sodipodi:nodetypes="cssscssccc" />
  </g>
</svg>
