<?xml version="1.0" encoding="UTF-8" standalone="no"?>
<!-- Created with Inkscape (http://www.inkscape.org/) -->

<svg
   xmlns:dc="http://purl.org/dc/elements/1.1/"
   xmlns:cc="http://creativecommons.org/ns#"
   xmlns:rdf="http://www.w3.org/1999/02/22-rdf-syntax-ns#"
   xmlns:svg="http://www.w3.org/2000/svg"
   xmlns="http://www.w3.org/2000/svg"
   xmlns:sodipodi="http://sodipodi.sourceforge.net/DTD/sodipodi-0.dtd"
   xmlns:inkscape="http://www.inkscape.org/namespaces/inkscape"
   width="192"
   height="64"
   id="svg9840"
   version="1.1"
   inkscape:version="0.47 r22583"
   sodipodi:docname="New document 36">
  <defs
     id="defs9842">
    <inkscape:perspective
       sodipodi:type="inkscape:persp3d"
       inkscape:vp_x="0 : 32 : 1"
       inkscape:vp_y="0 : 1000 : 0"
       inkscape:vp_z="64 : 32 : 1"
       inkscape:persp3d-origin="32 : 21.333333 : 1"
       id="perspective9848" />
    <inkscape:perspective
       id="perspective9878"
       inkscape:persp3d-origin="0.5 : 0.33333333 : 1"
       inkscape:vp_z="1 : 0.5 : 1"
       inkscape:vp_y="0 : 1000 : 0"
       inkscape:vp_x="0 : 0.5 : 1"
       sodipodi:type="inkscape:persp3d" />
    <inkscape:perspective
       id="perspective9900"
       inkscape:persp3d-origin="0.5 : 0.33333333 : 1"
       inkscape:vp_z="1 : 0.5 : 1"
       inkscape:vp_y="0 : 1000 : 0"
       inkscape:vp_x="0 : 0.5 : 1"
       sodipodi:type="inkscape:persp3d" />
    <inkscape:perspective
       id="perspective9922"
       inkscape:persp3d-origin="0.5 : 0.33333333 : 1"
       inkscape:vp_z="1 : 0.5 : 1"
       inkscape:vp_y="0 : 1000 : 0"
       inkscape:vp_x="0 : 0.5 : 1"
       sodipodi:type="inkscape:persp3d" />
    <inkscape:perspective
       id="perspective9944"
       inkscape:persp3d-origin="0.5 : 0.33333333 : 1"
       inkscape:vp_z="1 : 0.5 : 1"
       inkscape:vp_y="0 : 1000 : 0"
       inkscape:vp_x="0 : 0.5 : 1"
       sodipodi:type="inkscape:persp3d" />
    <inkscape:perspective
       id="perspective9966"
       inkscape:persp3d-origin="0.5 : 0.33333333 : 1"
       inkscape:vp_z="1 : 0.5 : 1"
       inkscape:vp_y="0 : 1000 : 0"
       inkscape:vp_x="0 : 0.5 : 1"
       sodipodi:type="inkscape:persp3d" />
    <inkscape:perspective
       id="perspective10498"
       inkscape:persp3d-origin="0.5 : 0.33333333 : 1"
       inkscape:vp_z="1 : 0.5 : 1"
       inkscape:vp_y="0 : 1000 : 0"
       inkscape:vp_x="0 : 0.5 : 1"
       sodipodi:type="inkscape:persp3d" />
    <inkscape:perspective
       id="perspective10520"
       inkscape:persp3d-origin="0.5 : 0.33333333 : 1"
       inkscape:vp_z="1 : 0.5 : 1"
       inkscape:vp_y="0 : 1000 : 0"
       inkscape:vp_x="0 : 0.5 : 1"
       sodipodi:type="inkscape:persp3d" />
    <inkscape:perspective
       id="perspective10542"
       inkscape:persp3d-origin="0.5 : 0.33333333 : 1"
       inkscape:vp_z="1 : 0.5 : 1"
       inkscape:vp_y="0 : 1000 : 0"
       inkscape:vp_x="0 : 0.5 : 1"
       sodipodi:type="inkscape:persp3d" />
    <inkscape:perspective
       id="perspective10582"
       inkscape:persp3d-origin="0.5 : 0.33333333 : 1"
       inkscape:vp_z="1 : 0.5 : 1"
       inkscape:vp_y="0 : 1000 : 0"
       inkscape:vp_x="0 : 0.5 : 1"
       sodipodi:type="inkscape:persp3d" />
    <inkscape:perspective
       id="perspective10649"
       inkscape:persp3d-origin="0.5 : 0.33333333 : 1"
       inkscape:vp_z="1 : 0.5 : 1"
       inkscape:vp_y="0 : 1000 : 0"
       inkscape:vp_x="0 : 0.5 : 1"
       sodipodi:type="inkscape:persp3d" />
  </defs>
  <sodipodi:namedview
     id="base"
     pagecolor="#ffffff"
     bordercolor="#666666"
     borderopacity="1.0"
     inkscape:pageopacity="0.0"
     inkscape:pageshadow="2"
     inkscape:zoom="5.7624059"
     inkscape:cx="103.93961"
     inkscape:cy="32.574712"
     inkscape:current-layer="layer1"
     showgrid="true"
     inkscape:document-units="px"
     inkscape:grid-bbox="true"
     showguides="true"
     inkscape:guide-bbox="true"
     inkscape:window-width="1366"
     inkscape:window-height="706"
     inkscape:window-x="-8"
     inkscape:window-y="-8"
     inkscape:window-maximized="1">
    <sodipodi:guide
       orientation="1,0"
       position="64,25.818182"
       id="guide9856" />
    <sodipodi:guide
       orientation="1,0"
       position="128,27.818182"
       id="guide9858" />
  </sodipodi:namedview>
  <metadata
     id="metadata9845">
    <rdf:RDF>
      <cc:Work
         rdf:about="">
        <dc:format>image/svg+xml</dc:format>
        <dc:type
           rdf:resource="http://purl.org/dc/dcmitype/StillImage" />
        <dc:title></dc:title>
      </cc:Work>
    </rdf:RDF>
  </metadata>
  <g
     id="layer1"
     inkscape:label="Layer 1"
     inkscape:groupmode="layer">
    <path
       style="fill:#666666;stroke:#000000;stroke-width:1px;stroke-linecap:butt;stroke-linejoin:round;stroke-opacity:1"
       d="m 89.131791,45.211002 c 0,0 -10.98523,0.887816 -14.49576,3.189128 -4.32496,2.835211 -4.53021,5.530334 -4.53021,5.530334 0,0 2.00443,-2.643967 7.04201,-3.401051 5.39398,-0.810644 16.37595,-1.463648 16.37595,-1.463648 l -4.39199,-3.854763 z"
       id="path9868-6-62-7"
       sodipodi:nodetypes="cscscc" />
    <path
       style="fill:#666666;stroke:#000000;stroke-width:1.1465956px;stroke-linecap:butt;stroke-linejoin:round;stroke-opacity:1"
       d="m 91.542471,49.85709 c 0,0 -6.12111,0.102142 -10.21352,2.716111 -5.04185,3.220405 -5.85214,5.667576 -5.85214,5.667576 0,0 0.5119,-2.963025 8.18295,-3.856176 6.25224,-0.727956 12.88962,-1.609479 12.88962,-1.609479 l -5.00691,-2.918032 z"
       id="path9868-6-6-8-2-5"
       sodipodi:nodetypes="cscscc" />
    <path
       style="fill:#666666;stroke:#000000;stroke-width:1.1465956px;stroke-linecap:butt;stroke-linejoin:round;stroke-opacity:1"
       d="m 92.102321,42.019705 c 0,0 -11.84316,-2.582895 -16.41259,-0.939428 -5.62953,2.024748 -6.96131,4.231914 -6.96131,4.231914 0,0 1.15495,-2.776265 8.83345,-1.949601 6.25831,0.673767 18.77741,2.610862 18.77741,2.610862 l -4.23696,-3.953747 z"
       id="path9868-6-6-8-7"
       sodipodi:nodetypes="cscscc" />
    <path
       style="fill:#666666;stroke:#000000;stroke-width:1px;stroke-linecap:butt;stroke-linejoin:round;stroke-opacity:1"
       d="m 88.701191,35.879247 c 0,0 -10.60047,-3.015588 -14.69462,-2.089451 -5.044,1.140996 -6.18011,3.593557 -6.18011,3.593557 0,0 2.80344,-1.774547 7.78713,-0.719456 5.33627,1.129734 15.85146,4.364124 15.85146,4.364124 l -2.76386,-5.148774 z"
       id="path9868-6-2-8"
       sodipodi:nodetypes="cscscc" />
    <path
       style="fill:#666666;stroke:#000000;stroke-width:1.1465956px;stroke-linecap:butt;stroke-linejoin:round;stroke-opacity:1"
       d="m 92.740251,32.07347 c 0,0 -11.44742,-5.515063 -16.29896,-5.307006 -5.97708,0.256327 -7.7752,2.76929 -7.7752,2.76929 0,0 3.55673,-1.417719 9.01324,0.769579 5.84254,2.342047 17.14783,8.084549 17.14783,8.084549 l -2.08691,-6.316412 z"
       id="path9868-6-6-2"
       sodipodi:nodetypes="cscscc" />
    <path
       style="fill:#666666;stroke:#000000;stroke-width:1px;stroke-linecap:butt;stroke-linejoin:round;stroke-opacity:1"
       d="m 88.539661,25.011414 c 0,0 -9.24618,-5.997652 -13.43172,-6.315585 -5.15658,-0.391693 -6.96328,1.618692 -6.96328,1.618692 0,0 3.20115,-0.872323 7.65471,1.600764 4.76864,2.648053 13.869,8.829782 13.869,8.829782 l -1.12871,-5.733653 z"
       id="path9868-6-7"
       sodipodi:nodetypes="cscscc" />
    <path
       style="fill:#666666;stroke:#000000;stroke-width:1px;stroke-linecap:butt;stroke-linejoin:round;stroke-opacity:1"
       d="m 89.029731,19.772809 c 0,0 -8.54546,-7.272727 -12.72728,-7.636363 -4.18181,-0.363637 -7.09091,0.909091 -7.09091,0.909091 0,0 3.63637,-2 8,1.272727 4.36364,3.272727 12.36364,11.272727 12.36364,11.272727 l -0.54545,-5.818182 z"
       id="path9868-8" />
    <path
       style="fill:#666666;stroke:#000000;stroke-width:1px;stroke-linecap:butt;stroke-linejoin:round;stroke-opacity:1"
       d="m 103.5343,45.801829 c 0,0 10.98523,0.887816 14.49576,3.189128 4.32496,2.835211 4.53021,5.530334 4.53021,5.530334 0,0 -2.00443,-2.643967 -7.04201,-3.401051 -5.39398,-0.810644 -16.375955,-1.463648 -16.375955,-1.463648 l 4.391995,-3.854763 z"
       id="path9868-6-62"
       sodipodi:nodetypes="cscscc" />
    <path
       style="fill:#666666;stroke:#000000;stroke-width:1.1465956px;stroke-linecap:butt;stroke-linejoin:round;stroke-opacity:1"
       d="m 101.12362,50.447917 c 0,0 6.12111,0.102142 10.21352,2.716111 5.04185,3.220405 5.85214,5.667576 5.85214,5.667576 0,0 -0.5119,-2.963025 -8.18295,-3.856176 -6.25224,-0.727956 -12.889618,-1.609479 -12.889618,-1.609479 l 5.006908,-2.918032 z"
       id="path9868-6-6-8-2"
       sodipodi:nodetypes="cscscc" />
    <path
       style="fill:#666666;stroke:#000000;stroke-width:1.14659559999999990px;stroke-linecap:butt;stroke-linejoin:round;stroke-opacity:1"
       d="m 100.56377,42.610532 c 0,0 11.84316,-2.582895 16.41259,-0.939428 5.62953,2.024748 6.96131,4.231914 6.96131,4.231914 0,0 -1.15495,-2.776265 -8.83345,-1.949601 -6.25831,0.673767 -18.777414,2.610862 -18.777414,2.610862 l 4.236964,-3.953747 z"
       id="path9868-6-6-8"
       sodipodi:nodetypes="cscscc" />
    <path
       style="fill:#666666;stroke:#000000;stroke-width:1px;stroke-linecap:butt;stroke-linejoin:round;stroke-opacity:1"
       d="m 103.9649,36.470074 c 0,0 10.60047,-3.015588 14.69462,-2.089451 5.044,1.140996 6.18011,3.593557 6.18011,3.593557 0,0 -2.80344,-1.774547 -7.78713,-0.719456 -5.33627,1.129734 -15.85146,4.364124 -15.85146,4.364124 l 2.76386,-5.148774 z"
       id="path9868-6-2"
       sodipodi:nodetypes="cscscc" />
    <path
       style="fill:#666666;stroke:#000000;stroke-width:1.14659559999999990px;stroke-linecap:butt;stroke-linejoin:round;stroke-opacity:1"
       d="m 99.92584,32.664297 c 0,0 11.44742,-5.515063 16.29896,-5.307006 5.97708,0.256327 7.7752,2.76929 7.7752,2.76929 0,0 -3.55673,-1.417719 -9.01324,0.769579 -5.84254,2.342047 -17.14783,8.084549 -17.14783,8.084549 l 2.08691,-6.316412 z"
       id="path9868-6-6"
       sodipodi:nodetypes="cscscc" />
    <path
       style="fill:#666666;stroke:#000000;stroke-width:1px;stroke-linecap:butt;stroke-linejoin:round;stroke-opacity:1"
       d="m 104.12643,25.602241 c 0,0 9.24618,-5.997652 13.43172,-6.315585 5.15658,-0.391693 6.96328,1.618692 6.96328,1.618692 0,0 -3.20115,-0.872323 -7.65471,1.600764 -4.76864,2.648053 -13.869,8.829782 -13.869,8.829782 l 1.12871,-5.733653 z"
       id="path9868-6"
       sodipodi:nodetypes="cscscc" />
    <path
       style="fill:#666666;stroke:#000000;stroke-width:1px;stroke-linecap:butt;stroke-linejoin:round;stroke-opacity:1"
       d="m 103.63636,20.363636 c 0,0 8.54546,-7.272727 12.72728,-7.636363 4.18181,-0.363637 7.09091,0.909091 7.09091,0.909091 0,0 -3.63637,-2 -8,1.272727 -4.36364,3.272727 -12.36364,11.272727 -12.36364,11.272727 l 0.54545,-5.818182 z"
       id="path9868" />
    <path
       style="fill:#333333;stroke:#000000;stroke-width:1px;stroke-linecap:butt;stroke-linejoin:round;stroke-opacity:1"
       d="m 95.636364,17.090909 c 7.818176,0.181818 10.545446,-14.3636363 10.545446,-14.3636363 0,0 -4.18181,9.8181823 -9.636355,10.0000003 C 91.090909,12.909091 86,3.0909091 86,3.0909091 c 0,0 2.363637,14.1818179 9.636364,13.9999999 z"
       id="path9866" />
    <path
       sodipodi:type="arc"
       style="fill:#333333;fill-opacity:1;stroke:#000000;stroke-width:0.73900001999999998;stroke-linecap:round;stroke-linejoin:round;stroke-miterlimit:4;stroke-opacity:1;stroke-dasharray:none"
       id="path9860"
       sodipodi:cx="30.727272"
       sodipodi:cy="32.636364"
       sodipodi:rx="13.090909"
       sodipodi:ry="23.727272"
       d="m 43.818181,32.636364 a 13.090909,23.727272 0 1 1 -26.181818,0 13.090909,23.727272 0 1 1 26.181818,0 z"
       transform="translate(65.272727,1.8181818)" />
    <path
       style="fill:#666666;stroke:#000000;stroke-width:1px;stroke-linecap:butt;stroke-linejoin:round;stroke-opacity:1"
       d="m 153.13841,45.478364 c 0,0 -10.98523,6.887816 -14.49576,9.189128 -4.32496,2.835211 -4.53021,5.530334 -4.53021,5.530334 0,0 2.00443,-2.643967 7.04201,-3.401051 5.39398,-0.810644 16.37595,-7.463648 16.37595,-7.463648 l -4.39199,-3.854763 z"
       id="path9868-6-62-7-0"
       sodipodi:nodetypes="cscscc" />
    <path
       style="fill:#666666;stroke:#000000;stroke-width:1.1465956px;stroke-linecap:butt;stroke-linejoin:round;stroke-opacity:1"
       d="m 155.54909,50.124452 c 0,0 -6.12111,4.102142 -10.21352,6.716111 -5.04185,3.220405 -5.85214,5.667576 -5.85214,5.667576 0,0 0.5119,-2.963025 8.18295,-3.856176 6.25224,-0.727956 12.88962,-5.609479 12.88962,-5.609479 l -5.00691,-2.918032 z"
       id="path9868-6-6-8-2-5-2"
       sodipodi:nodetypes="cscscc" />
    <path
       style="fill:#666666;stroke:#000000;stroke-width:1.1465956px;stroke-linecap:butt;stroke-linejoin:round;stroke-opacity:1"
       d="m 156.10894,42.287067 c 0,0 -11.84316,3.417105 -16.41259,5.060572 -5.62953,2.024748 -6.96131,4.231914 -6.96131,4.231914 0,0 1.15495,-2.776265 8.83345,-1.949601 6.25831,0.673767 18.77741,-3.389138 18.77741,-3.389138 l -4.23696,-3.953747 z"
       id="path9868-6-6-8-7-0"
       sodipodi:nodetypes="cscscc" />
    <path
       style="fill:#666666;stroke:#000000;stroke-width:1px;stroke-linecap:butt;stroke-linejoin:round;stroke-opacity:1"
       d="m 152.70781,36.146609 c 0,0 -10.60047,2.984412 -14.69462,3.910549 -5.044,1.140996 -6.18011,3.593557 -6.18011,3.593557 0,0 2.80344,-1.774547 7.78713,-0.719456 5.33627,1.129734 15.85146,-1.635876 15.85146,-1.635876 l -2.76386,-5.148774 z"
       id="path9868-6-2-8-8"
       sodipodi:nodetypes="cscscc" />
    <path
       style="fill:#666666;stroke:#000000;stroke-width:1.1465956px;stroke-linecap:butt;stroke-linejoin:round;stroke-opacity:1"
       d="m 156.74687,32.340832 c 0,0 -11.44742,0.484937 -16.29896,0.692994 -5.97708,0.256327 -7.7752,2.76929 -7.7752,2.76929 0,0 3.55673,-1.417719 9.01324,0.769579 5.84254,2.342047 17.14783,2.084549 17.14783,2.084549 l -2.08691,-6.316412 z"
       id="path9868-6-6-2-9"
       sodipodi:nodetypes="cscscc" />
    <path
       style="fill:#666666;stroke:#000000;stroke-width:1px;stroke-linecap:butt;stroke-linejoin:round;stroke-opacity:1"
       d="m 152.54628,25.278776 c 0,0 -9.24618,0.0023 -13.43172,-0.315585 -5.15658,-0.391693 -6.96328,1.618692 -6.96328,1.618692 0,0 3.20115,-0.872323 7.65471,1.600764 4.76864,2.648053 13.869,2.829782 13.869,2.829782 l -1.12871,-5.733653 z"
       id="path9868-6-7-2"
       sodipodi:nodetypes="cscscc" />
    <path
       style="fill:#666666;stroke:#000000;stroke-width:1px;stroke-linecap:butt;stroke-linejoin:round;stroke-opacity:1"
       d="m 153.03635,20.040171 c 0,0 -8.54546,-1.272727 -12.72728,-1.636363 -4.18181,-0.363637 -7.09091,0.909091 -7.09091,0.909091 0,0 3.63637,-2 8,1.272727 4.36364,3.272727 12.36364,5.272727 12.36364,5.272727 l -0.54545,-5.818182 z"
       id="path9868-8-8"
       sodipodi:nodetypes="cscscc" />
    <path
       style="fill:#666666;stroke:#000000;stroke-width:1px;stroke-linecap:butt;stroke-linejoin:round;stroke-opacity:1"
       d="m 167.54091,46.069191 c 0,0 10.98523,-5.112184 14.49576,-2.810872 4.32496,2.835211 4.53021,5.530334 4.53021,5.530334 0,0 -2.00443,-2.643967 -7.04201,-3.401051 -5.39398,-0.810644 -16.37595,4.536352 -16.37595,4.536352 l 4.39199,-3.854763 z"
       id="path9868-6-62-2"
       sodipodi:nodetypes="cscscc" />
    <path
       style="fill:#666666;stroke:#000000;stroke-width:1.1465956px;stroke-linecap:butt;stroke-linejoin:round;stroke-opacity:1"
       d="m 165.13023,50.715279 c 0,0 6.12111,-3.897858 10.21352,-1.283889 5.04185,3.220405 5.85214,5.667576 5.85214,5.667576 0,0 -0.5119,-2.963025 -8.18295,-3.856176 -6.25224,-0.727956 -12.88961,2.390521 -12.88961,2.390521 l 5.0069,-2.918032 z"
       id="path9868-6-6-8-2-0"
       sodipodi:nodetypes="cscscc" />
    <path
       style="fill:#666666;stroke:#000000;stroke-width:1.1465956px;stroke-linecap:butt;stroke-linejoin:round;stroke-opacity:1"
       d="m 164.57038,42.877894 c 0,0 11.84316,-8.582895 16.41259,-6.939428 5.62953,2.024748 6.96131,4.231914 6.96131,4.231914 0,0 -1.15495,-2.776265 -8.83345,-1.949601 -6.25831,0.673767 -18.77741,8.610862 -18.77741,8.610862 l 4.23696,-3.953747 z"
       id="path9868-6-6-8-5"
       sodipodi:nodetypes="cscscc" />
    <path
       style="fill:#666666;stroke:#000000;stroke-width:1px;stroke-linecap:butt;stroke-linejoin:round;stroke-opacity:1"
       d="m 167.97151,36.737436 c 0,0 10.60047,-9.015588 14.69462,-8.089451 5.044,1.140996 6.18011,3.593557 6.18011,3.593557 0,0 -2.80344,-1.774547 -7.78713,-0.719456 -5.33627,1.129734 -15.85146,10.364124 -15.85146,10.364124 l 2.76386,-5.148774 z"
       id="path9868-6-2-5"
       sodipodi:nodetypes="cscscc" />
    <path
       style="fill:#666666;stroke:#000000;stroke-width:1.1465956px;stroke-linecap:butt;stroke-linejoin:round;stroke-opacity:1"
       d="m 163.93245,32.931659 c 0,0 11.44742,-11.515063 16.29896,-11.307006 5.97708,0.256327 7.7752,2.76929 7.7752,2.76929 0,0 -3.55673,-1.417719 -9.01324,0.769579 -5.84254,2.342047 -17.14783,14.084549 -17.14783,14.084549 l 2.08691,-6.316412 z"
       id="path9868-6-6-27"
       sodipodi:nodetypes="cscscc" />
    <path
       style="fill:#666666;stroke:#000000;stroke-width:1px;stroke-linecap:butt;stroke-linejoin:round;stroke-opacity:1"
       d="m 168.13304,25.869603 c 0,0 9.24618,-11.997652 13.43172,-12.315585 5.15658,-0.391693 6.96328,1.618692 6.96328,1.618692 0,0 -3.20115,-0.872323 -7.65471,1.600764 -4.76864,2.648053 -13.869,14.829782 -13.869,14.829782 l 1.12871,-5.733653 z"
       id="path9868-6-67"
       sodipodi:nodetypes="cscscc" />
    <path
       style="fill:#666666;stroke:#000000;stroke-width:1px;stroke-linecap:butt;stroke-linejoin:round;stroke-opacity:1"
       d="m 167.64297,20.630998 c 0,0 8.54546,-13.272727 12.72728,-13.636363 4.18181,-0.363637 7.09091,0.909091 7.09091,0.909091 0,0 -3.63637,-2 -8,1.272727 -4.36364,3.272727 -12.36364,17.272727 -12.36364,17.272727 l 0.54545,-5.818182 z"
       id="path9868-87"
       sodipodi:nodetypes="cscscc" />
    <path
       style="fill:#333333;stroke:#000000;stroke-width:1px;stroke-linecap:butt;stroke-linejoin:round;stroke-opacity:1"
       d="m 159.64298,19.358271 c 7.81817,0.181818 10.54544,-14.3636356 10.54544,-14.3636356 0,0 -4.18181,9.8181816 -9.63635,9.9999996 -5.45454,0.181818 -10.54545,-9.6363632 -10.54545,-9.6363632 0,0 2.36363,14.1818172 9.63636,13.9999992 z"
       id="path9866-8" />
    <path
       sodipodi:type="arc"
       style="fill:#333333;fill-opacity:1;stroke:#000000;stroke-width:0.73900002;stroke-linecap:round;stroke-linejoin:round;stroke-miterlimit:4;stroke-opacity:1;stroke-dasharray:none"
       id="path9860-1"
       sodipodi:cx="30.727272"
       sodipodi:cy="32.636364"
       sodipodi:rx="13.090909"
       sodipodi:ry="23.727272"
       d="m 43.818181,32.636364 a 13.090909,23.727272 0 1 1 -26.181818,0 13.090909,23.727272 0 1 1 26.181818,0 z"
       transform="translate(129.27934,4.0855445)" />
    <path
       style="fill:#666666;stroke:#000000;stroke-width:1px;stroke-linecap:butt;stroke-linejoin:round;stroke-opacity:1"
       d="m 39.5343,45.16291 c 0,0 10.98523,6.887816 14.49576,9.189128 4.32496,2.835211 4.53021,5.530334 4.53021,5.530334 0,0 -2.00443,-2.643967 -7.04201,-3.401051 C 46.12428,55.670677 35.14231,49.017673 35.14231,49.017673 L 39.5343,45.16291 z"
       id="path9868-6-62-7-0-6"
       sodipodi:nodetypes="cscscc" />
    <path
       style="fill:#666666;stroke:#000000;stroke-width:1.1465956px;stroke-linecap:butt;stroke-linejoin:round;stroke-opacity:1"
       d="m 37.12362,49.808998 c 0,0 6.12111,4.102142 10.21352,6.716111 5.04185,3.220405 5.85214,5.667576 5.85214,5.667576 0,0 -0.5119,-2.963025 -8.18295,-3.856176 C 38.75409,57.608553 32.11671,52.72703 32.11671,52.72703 l 5.00691,-2.918032 z"
       id="path9868-6-6-8-2-5-2-0"
       sodipodi:nodetypes="cscscc" />
    <path
       style="fill:#666666;stroke:#000000;stroke-width:1.1465956px;stroke-linecap:butt;stroke-linejoin:round;stroke-opacity:1"
       d="m 36.56377,41.971613 c 0,0 11.84316,3.417105 16.41259,5.060572 5.62953,2.024748 6.96131,4.231914 6.96131,4.231914 0,0 -1.15495,-2.776265 -8.83345,-1.949601 C 44.84591,49.988265 32.32681,45.92536 32.32681,45.92536 l 4.23696,-3.953747 z"
       id="path9868-6-6-8-7-0-9"
       sodipodi:nodetypes="cscscc" />
    <path
       style="fill:#666666;stroke:#000000;stroke-width:1px;stroke-linecap:butt;stroke-linejoin:round;stroke-opacity:1"
       d="m 39.9649,35.831155 c 0,0 10.60047,2.984412 14.69462,3.910549 5.044,1.140996 6.18011,3.593557 6.18011,3.593557 0,0 -2.80344,-1.774547 -7.78713,-0.719456 -5.33627,1.129734 -15.85146,-1.635876 -15.85146,-1.635876 l 2.76386,-5.148774 z"
       id="path9868-6-2-8-8-5"
       sodipodi:nodetypes="cscscc" />
    <path
       style="fill:#666666;stroke:#000000;stroke-width:1.1465956px;stroke-linecap:butt;stroke-linejoin:round;stroke-opacity:1"
       d="m 35.92584,32.025378 c 0,0 11.44742,0.484937 16.29896,0.692994 5.97708,0.256327 7.7752,2.76929 7.7752,2.76929 0,0 -3.55673,-1.417719 -9.01324,0.769579 -5.84254,2.342047 -17.14783,2.084549 -17.14783,2.084549 l 2.08691,-6.316412 z"
       id="path9868-6-6-2-9-8"
       sodipodi:nodetypes="cscscc" />
    <path
       style="fill:#666666;stroke:#000000;stroke-width:1px;stroke-linecap:butt;stroke-linejoin:round;stroke-opacity:1"
       d="m 40.12643,24.963322 c 0,0 9.24618,0.0023 13.43172,-0.315585 5.15658,-0.391693 6.96328,1.618692 6.96328,1.618692 0,0 -3.20115,-0.872323 -7.65471,1.600764 -4.76864,2.648053 -13.869,2.829782 -13.869,2.829782 l 1.12871,-5.733653 z"
       id="path9868-6-7-2-9"
       sodipodi:nodetypes="cscscc" />
    <path
       style="fill:#666666;stroke:#000000;stroke-width:1px;stroke-linecap:butt;stroke-linejoin:round;stroke-opacity:1"
       d="m 39.63636,19.724717 c 0,0 8.54546,-1.272727 12.72728,-1.636363 4.18181,-0.363637 7.09091,0.909091 7.09091,0.909091 0,0 -3.63637,-2 -8,1.272727 -4.36364,3.272727 -12.36364,5.272727 -12.36364,5.272727 l 0.54545,-5.818182 z"
       id="path9868-8-8-0"
       sodipodi:nodetypes="cscscc" />
    <path
       style="fill:#666666;stroke:#000000;stroke-width:1px;stroke-linecap:butt;stroke-linejoin:round;stroke-opacity:1"
       d="m 25.1318,45.753737 c 0,0 -10.98523,-5.112184 -14.49576,-2.810872 -4.32496,2.835211 -4.53021,5.530334 -4.53021,5.530334 0,0 2.00443,-2.643967 7.04201,-3.401051 5.39398,-0.810644 16.37595,4.536352 16.37595,4.536352 L 25.1318,45.753737 z"
       id="path9868-6-62-2-0"
       sodipodi:nodetypes="cscscc" />
    <path
       style="fill:#666666;stroke:#000000;stroke-width:1.1465956px;stroke-linecap:butt;stroke-linejoin:round;stroke-opacity:1"
       d="m 27.54248,50.399825 c 0,0 -6.12111,-3.897858 -10.21352,-1.283889 -5.04185,3.220405 -5.85214,5.667576 -5.85214,5.667576 0,0 0.5119,-2.963025 8.18295,-3.856176 6.25224,-0.727956 12.88961,2.390521 12.88961,2.390521 l -5.0069,-2.918032 z"
       id="path9868-6-6-8-2-0-0"
       sodipodi:nodetypes="cscscc" />
    <path
       style="fill:#666666;stroke:#000000;stroke-width:1.1465956px;stroke-linecap:butt;stroke-linejoin:round;stroke-opacity:1"
       d="m 28.10233,42.56244 c 0,0 -11.84316,-8.582895 -16.41259,-6.939428 -5.62953,2.024748 -6.96131,4.231914 -6.96131,4.231914 0,0 1.15495,-2.776265 8.83345,-1.949601 6.25831,0.673767 18.77741,8.610862 18.77741,8.610862 L 28.10233,42.56244 z"
       id="path9868-6-6-8-5-7"
       sodipodi:nodetypes="cscscc" />
    <path
       style="fill:#666666;stroke:#000000;stroke-width:1px;stroke-linecap:butt;stroke-linejoin:round;stroke-opacity:1"
       d="m 24.7012,36.421982 c 0,0 -10.60047,-9.015588 -14.69462,-8.089451 -5.044,1.140996 -6.18011,3.593557 -6.18011,3.593557 0,0 2.80344,-1.774547 7.78713,-0.719456 5.33627,1.129734 15.85146,10.364124 15.85146,10.364124 L 24.7012,36.421982 z"
       id="path9868-6-2-5-2"
       sodipodi:nodetypes="cscscc" />
    <path
       style="fill:#666666;stroke:#000000;stroke-width:1.1465956px;stroke-linecap:butt;stroke-linejoin:round;stroke-opacity:1"
       d="m 28.74026,32.616205 c 0,0 -11.44742,-11.515063 -16.29896,-11.307006 -5.97708,0.256327 -7.7752,2.76929 -7.7752,2.76929 0,0 3.55673,-1.417719 9.01324,0.769579 5.84254,2.342047 17.14783,14.084549 17.14783,14.084549 l -2.08691,-6.316412 z"
       id="path9868-6-6-27-5"
       sodipodi:nodetypes="cscscc" />
    <path
       style="fill:#666666;stroke:#000000;stroke-width:1px;stroke-linecap:butt;stroke-linejoin:round;stroke-opacity:1"
       d="m 24.53967,25.554149 c 0,0 -9.24618,-11.997652 -13.43172,-12.315585 -5.15658,-0.391693 -6.96328,1.618692 -6.96328,1.618692 0,0 3.20115,-0.872323 7.65471,1.600764 4.76864,2.648053 13.869,14.829782 13.869,14.829782 l -1.12871,-5.733653 z"
       id="path9868-6-67-5"
       sodipodi:nodetypes="cscscc" />
    <path
       style="fill:#666666;stroke:#000000;stroke-width:1px;stroke-linecap:butt;stroke-linejoin:round;stroke-opacity:1"
       d="m 25.02974,20.315544 c 0,0 -8.54546,-13.2727254 -12.72728,-13.6363614 -4.18181,-0.363637 -7.09091,0.909091 -7.09091,0.909091 0,0 3.63637,-2 8,1.272727 4.36364,3.2727254 12.36364,17.2727254 12.36364,17.2727254 l -0.54545,-5.818182 z"
       id="path9868-87-2"
       sodipodi:nodetypes="cscscc" />
    <path
       style="fill:#333333;stroke:#000000;stroke-width:1px;stroke-linecap:butt;stroke-linejoin:round;stroke-opacity:1"
       d="M 33.02973,19.042817 C 25.21156,19.224635 22.48429,4.679183 22.48429,4.679183 c 0,0 4.18181,9.81818 9.63635,9.999998 5.45454,0.181818 10.54545,-9.6363616 10.54545,-9.6363616 0,0 -2.36363,14.1818156 -9.63636,13.9999976 z"
       id="path9866-8-1" />
    <path
       sodipodi:type="arc"
       style="fill:#333333;fill-opacity:1;stroke:#000000;stroke-width:0.73900002;stroke-linecap:round;stroke-linejoin:round;stroke-miterlimit:4;stroke-opacity:1;stroke-dasharray:none"
       id="path9860-1-4"
       sodipodi:cx="30.727272"
       sodipodi:cy="32.636364"
       sodipodi:rx="13.090909"
       sodipodi:ry="23.727272"
       d="m 43.818181,32.636364 a 13.090909,23.727272 0 1 1 -26.181818,0 13.090909,23.727272 0 1 1 26.181818,0 z"
       transform="matrix(-1,0,0,1,63.39337,3.7700921)" />
  </g>
</svg>
